<?xml version="1.0" ?><svg enable-background="new 0 0 24 24" id="Layer_1" version="1.1" viewBox="0 0 24 24" xml:space="preserve" xmlns="http://www.w3.org/2000/svg" xmlns:xlink="http://www.w3.org/1999/xlink"><g><path d="M18,5.5V4H6v1.5C6,5.7763672,5.7763672,6,5.5,6H4v12h1.5C5.7763672,18,6,18.2236328,6,18.5V20h12v-1.5   c0-0.2763672,0.2236328-0.5,0.5-0.5H20V6h-1.5C18.2236328,6,18,5.7763672,18,5.5z M17.8535156,8.8535156l-5.5,5.5   C12.2558594,14.4511719,12.1279297,14.5,12,14.5s-0.2558594-0.0488281-0.3535156-0.1464844l-4.5-4.5   c-0.1953125-0.1953125-0.1953125-0.5117188,0-0.7070313l2-2c0.1953125-0.1953125,0.5117188-0.1953125,0.7070313,0   l2.1463013,2.1463013l3.1466675-3.1472778c0.09375-0.09375,0.2207031-0.1464844,0.3535156-0.1464844   s0.2597656,0.0527344,0.3535156,0.1464844l2,2.0009766C18.0488281,8.3417969,18.0488281,8.6582031,17.8535156,8.8535156z" fill="#303C42"/><rect fill="#303C42" height="2.5355113" transform="matrix(0.7071068 -0.7071068 0.7071068 0.7071068 -4.0385633 9.7499542)" width="1.8285339" x="8.8356876" y="8.4821987"/><path d="M23.5,5H22V2.5C22,2.2236328,21.7763672,2,21.5,2H19V0.5C19,0.2236328,18.7763672,0,18.5,0h-13   C5.2236328,0,5,0.2236328,5,0.5V2H2.5C2.2236328,2,2,2.2236328,2,2.5V5H0.5C0.2236328,5,0,5.2236328,0,5.5v13   C0,18.7763672,0.2236328,19,0.5,19H2v2.5C2,21.7763672,2.2236328,22,2.5,22H5v1.5C5,23.7763672,5.2236328,24,5.5,24h13   c0.2763672,0,0.5-0.2236328,0.5-0.5V22h2.5c0.2763672,0,0.5-0.2236328,0.5-0.5V19h1.5c0.2763672,0,0.5-0.2236328,0.5-0.5v-13   C24,5.2236328,23.7763672,5,23.5,5z M21,18.5c0,0.2763672-0.2236328,0.5-0.5,0.5H19v1.5c0,0.2763672-0.2236328,0.5-0.5,0.5h-13   C5.2236328,21,5,20.7763672,5,20.5V19H3.5C3.2236328,19,3,18.7763672,3,18.5v-13C3,5.2236328,3.2236328,5,3.5,5H5V3.5   C5,3.2236328,5.2236328,3,5.5,3h13C18.7763672,3,19,3.2236328,19,3.5V5h1.5C20.7763672,5,21,5.2236328,21,5.5V18.5z" fill="#303C42"/></g><g/><g/><g/><g/><g/><g/><g/><g/><g/><g/><g/><g/><g/><g/><g/></svg>